<?xml version="1.0" encoding="UTF-8"?>
<svg width="25px" height="25px" viewBox="0 0 25 25" version="1.1" xmlns="http://www.w3.org/2000/svg" xmlns:xlink="http://www.w3.org/1999/xlink">
    <!-- Generator: Sketch 52.6 (67491) - http://www.bohemiancoding.com/sketch -->
    <title>royal mini</title>
    <desc>Created with Sketch.</desc>
    <g id="Page-1" stroke="none" stroke-width="1" fill="none" fill-rule="evenodd">
        <g id="royal-mini">
            <path d="M2.40000004,0.0487804878 L16.1999999,0.0487804878 C21.0601057,0.0487804878 25,3.98867475 25,8.84878062 L25,22.6 C25,23.9254834 23.9254834,25 22.6,25 L8.80000013,25 C3.93989426,25 5.9519131e-16,21.0601057 0,16.1999999 L0,2.44878052 C-1.62324903e-16,1.1232971 1.07451662,0.0487804878 2.40000004,0.0487804878 Z" id="Rectangle" fill="#F5A622"></path>
            <path d="M0,0.0487804878 L8.08025177,0.0487804878 C12.5254705,0.0487804878 16.1290323,3.65234226 16.1290323,8.09756098 L16.1290323,13.7463414 C16.1290323,15.0718248 15.0545156,16.1463415 13.7290322,16.1463415 L8.06451613,16.1463415 C3.61060686,16.1463415 2.32180341e-15,12.5357346 1.77635684e-15,8.08182533 L0,0.0487804878 Z" id="Rectangle" fill="#FDBC0A"></path>
            <path d="M15.0129032,21.4778537 L11.0645161,14.6009756 L10.0580645,14.6009756 L10.0580645,21.4778537 L5.64516129,21.4778537 L5.64516129,3.26829268 L13.1806452,3.26829268 C14.6258137,3.26829268 15.8473068,3.5172658 16.8451613,4.01521951 C17.8430157,4.51317322 18.5913954,5.19570298 19.0903226,6.06282927 C19.5892498,6.92995556 19.8387097,7.9215554 19.8387097,9.03765854 C19.8387097,10.3598115 19.4731219,11.4844832 18.7419355,12.4117073 C18.010749,13.3389315 16.9483941,13.9742422 15.5548387,14.3176585 L19.8903226,21.4778537 L15.0129032,21.4778537 Z M10.0580645,11.5875122 L12.7935484,11.5875122 C13.6709721,11.5875122 14.316127,11.3943434 14.7290323,11.008 C15.1419375,10.6216566 15.3483871,10.0507355 15.3483871,9.29521951 C15.3483871,8.57404517 15.1376365,8.00741669 14.716129,7.59531707 C14.2946215,7.18321745 13.6537677,6.97717073 12.7935484,6.97717073 L10.0580645,6.97717073 L10.0580645,11.5875122 Z" id="R" fill="#FFFFFF"></path>
        </g>
    </g>
</svg>