<?xml version="1.0" encoding="UTF-8"?>
<svg width="109px" height="29px" viewBox="0 0 109 29" version="1.1" xmlns="http://www.w3.org/2000/svg" xmlns:xlink="http://www.w3.org/1999/xlink">
    <!-- Generator: Sketch 52.6 (67491) - http://www.bohemiancoding.com/sketch -->
    <title>royal</title>
    <desc>Created with Sketch.</desc>
    <g id="Page-1" stroke="none" stroke-width="1" fill="none" fill-rule="evenodd">
        <g id="royal">
            <path d="M34.7290039,16.631082 L34.7290039,23.4142852 L32,23.4142852 L32,7.06272266 L38.0419922,7.06272266 C39.8688242,7.06272266 41.2801057,7.47450239 42.2758789,8.29807422 C43.2716521,9.12164604 43.7695312,10.29709 43.7695312,11.8244414 C43.7695312,12.6704743 43.5505393,13.3985757 43.1125488,14.0087676 C42.6745584,14.6189594 42.0362998,15.1074799 41.1977539,15.4743438 C42.1186569,15.7663374 42.781248,16.2436275 43.1855469,16.9062285 C43.5898458,17.5688295 43.7919922,18.3830303 43.7919922,19.3488555 L43.7919922,20.7077422 C43.7919922,21.1869112 43.8518874,21.6548428 43.9716797,22.1115508 C44.091472,22.5682588 44.2936184,22.9163998 44.578125,23.1559844 L44.578125,23.4142852 L41.7705078,23.4142852 C41.4710271,23.1672136 41.2782394,22.7778946 41.1921387,22.2463164 C41.106038,21.7147382 41.0629883,21.1943984 41.0629883,20.6852813 L41.0629883,19.3713164 C41.0629883,18.5327705 40.8234073,17.8664361 40.3442383,17.372293 C39.8650692,16.8781499 39.2062216,16.631082 38.3676758,16.631082 L34.7290039,16.631082 Z M34.7290039,14.4411406 L37.8959961,14.4411406 C38.9891005,14.4411406 39.7864558,14.2315073 40.2880859,13.8122344 C40.789716,13.3929614 41.0405273,12.7528311 41.0405273,11.8918242 C41.0405273,11.0682524 40.7934595,10.4225069 40.2993164,9.95456836 C39.8051733,9.48662982 39.0527394,9.25266406 38.0419922,9.25266406 L34.7290039,9.25266406 L34.7290039,14.4411406 Z M46.375,17.2262969 C46.375,15.4219259 46.8691357,13.9395188 47.8574219,12.7790313 C48.8606821,11.6185437 50.2195552,11.0383086 51.934082,11.0383086 C53.6785569,11.0383086 55.0449169,11.6185437 56.0332031,12.7790313 C57.0289763,13.9320318 57.5268555,15.4144389 57.5268555,17.2262969 L57.5268555,17.4621367 C57.5268555,19.2889688 57.0289763,20.7788627 56.0332031,21.9318633 C55.0449169,23.0773768 53.6860438,23.650125 51.956543,23.650125 C50.2195551,23.650125 48.8531951,23.0736334 47.8574219,21.9206328 C46.8691357,20.7676323 46.375,19.2814818 46.375,17.4621367 L46.375,17.2262969 Z M49.1040039,17.4621367 C49.1040039,18.6450853 49.3360979,19.610896 49.800293,20.3595977 C50.257001,21.1008123 50.9757438,21.4714141 51.956543,21.4714141 C52.9073941,21.4714141 53.61865,21.1008123 54.090332,20.3595977 C54.5695011,19.610896 54.809082,18.6450853 54.809082,17.4621367 L54.809082,17.2262969 C54.809082,16.0658093 54.5695011,15.111229 54.090332,14.3625273 C53.61865,13.6063387 52.8999072,13.22825 51.934082,13.22825 C50.9832309,13.22825 50.271975,13.6063387 49.800293,14.3625273 C49.3360979,15.118716 49.1040039,16.0732963 49.1040039,17.2262969 L49.1040039,17.4621367 Z M63.7597656,18.5402617 L64.0292969,19.7531523 L64.0966797,19.7531523 L66.7583008,11.262918 L69.7456055,11.262918 L64.7143555,25.256082 C64.3924138,26.1021149 63.939456,26.8246012 63.3554688,27.4235625 C62.7714815,28.0225238 61.9441785,28.322 60.8735352,28.322 C60.6489247,28.322 60.407472,28.2995393 60.1491699,28.2546172 C59.8908678,28.2096951 59.6419283,28.1572868 59.4023438,28.0973906 L59.7055664,25.9860625 C59.8028976,25.9935495 59.9414054,26.0047799 60.1210938,26.0197539 C60.3007821,26.0347279 60.4355464,26.0422148 60.5253906,26.0422148 C61.0195337,26.0422148 61.4144679,25.8737595 61.7102051,25.5368438 C62.0059422,25.199928 62.2473949,24.810609 62.4345703,24.368875 L62.8837891,23.2682891 L58.4702148,11.262918 L61.4462891,11.262918 L63.7597656,18.5402617 Z M78.5166016,23.4142852 C78.4192703,23.1073175 78.3387861,22.8078413 78.2751465,22.5158477 C78.2115068,22.223854 78.1684571,21.9318647 78.1459961,21.6398711 C77.7716453,22.2088844 77.2793813,22.6861745 76.6691895,23.0717559 C76.0589976,23.4573372 75.3758176,23.650125 74.6196289,23.650125 C73.3543231,23.650125 72.3828973,23.3244447 71.7053223,22.6730742 C71.0277473,22.0217038 70.6889648,21.1270187 70.6889648,19.9889922 C70.6889648,18.8135306 71.1531529,17.8982565 72.081543,17.2431426 C73.009933,16.5880286 74.3163978,16.2604766 76.0009766,16.2604766 L78.1235352,16.2604766 L78.1235352,15.193582 C78.1235352,14.5571856 77.9363625,14.0593065 77.5620117,13.6999297 C77.1876609,13.3405529 76.6523472,13.1608672 75.9560547,13.1608672 C75.3346323,13.1608672 74.8404966,13.3106053 74.4736328,13.6100859 C74.106769,13.9095666 73.9233398,14.2951422 73.9233398,14.7668242 L71.2954102,14.7668242 L71.2841797,14.6994414 C71.2317706,13.7411033 71.6603958,12.8913396 72.5700684,12.150125 C73.4797409,11.4089104 74.6645435,11.0383086 76.1245117,11.0383086 C77.5395579,11.0383086 78.6813108,11.39768 79.5498047,12.1164336 C80.4182986,12.8351872 80.8525391,13.86838 80.8525391,15.216043 L80.8525391,20.6178984 C80.8525391,21.1195285 80.8862301,21.6005622 80.9536133,22.0610137 C81.0209964,22.5214652 81.1295565,22.9725512 81.2792969,23.4142852 L78.5166016,23.4142852 Z M75.1699219,21.4601836 C75.8587274,21.4601836 76.4782687,21.2879848 77.0285645,20.943582 C77.5788602,20.5991793 77.9438468,20.2061168 78.1235352,19.7643828 L78.1235352,17.9675078 L75.9560547,17.9675078 C75.1624309,17.9675078 74.5410179,18.1640391 74.0917969,18.5571074 C73.6425759,18.9501758 73.4179688,19.4124921 73.4179688,19.9440703 C73.4179688,20.4082653 73.5695786,20.7769954 73.8728027,21.0502715 C74.1760269,21.3235476 74.6083956,21.4601836 75.1699219,21.4601836 Z M86.625,23.4142852 L83.8959961,23.4142852 L83.8959961,5.89475391 L86.625,5.89475391 L86.625,23.4142852 Z M102.44873,7.06272266 L102.44873,18.0236602 C102.44873,19.8355182 101.857265,21.2262106 100.674316,22.1957793 C99.4913678,23.1653479 97.945322,23.650125 96.0361328,23.650125 C94.1643787,23.650125 92.6482805,23.1634762 91.487793,22.1901641 C90.3273054,21.2168519 89.7470703,19.8280312 89.7470703,18.0236602 L89.7470703,7.06272266 L92.4760742,7.06272266 L92.4760742,18.0236602 C92.4760742,19.1691737 92.7980111,20.0301677 93.4418945,20.606668 C94.085778,21.1831682 94.9505154,21.4714141 96.0361328,21.4714141 C97.1591853,21.4714141 98.0538704,21.1831682 98.7202148,20.606668 C99.3865593,20.0301677 99.7197266,19.1691737 99.7197266,18.0236602 L99.7197266,7.06272266 L102.44873,7.06272266 Z M108.591797,23.4142852 L105.862793,23.4142852 L105.862793,7.06272266 L108.591797,7.06272266 L108.591797,23.4142852 Z" id="RoyalUI" fill="#515151"></path>
            <g id="Group">
                <path d="M2.40000004,0.0487804878 L16.1999999,0.0487804878 C21.0601057,0.0487804878 25,3.98867475 25,8.84878062 L25,22.6 C25,23.9254834 23.9254834,25 22.6,25 L8.80000013,25 C3.93989426,25 5.9519131e-16,21.0601057 0,16.1999999 L0,2.44878052 C-1.62324903e-16,1.1232971 1.07451662,0.0487804878 2.40000004,0.0487804878 Z" id="Rectangle" fill="#F5A622"></path>
                <path d="M0,0.0487804878 L8.08025177,0.0487804878 C12.5254705,0.0487804878 16.1290323,3.65234226 16.1290323,8.09756098 L16.1290323,13.7463414 C16.1290323,15.0718248 15.0545156,16.1463415 13.7290322,16.1463415 L8.06451613,16.1463415 C3.61060686,16.1463415 2.32180341e-15,12.5357346 1.77635684e-15,8.08182533 L0,0.0487804878 Z" id="Rectangle" fill="#FDBC0A"></path>
                <path d="M15.0129032,21.4778537 L11.0645161,14.6009756 L10.0580645,14.6009756 L10.0580645,21.4778537 L5.64516129,21.4778537 L5.64516129,3.26829268 L13.1806452,3.26829268 C14.6258137,3.26829268 15.8473068,3.5172658 16.8451613,4.01521951 C17.8430157,4.51317322 18.5913954,5.19570298 19.0903226,6.06282927 C19.5892498,6.92995556 19.8387097,7.9215554 19.8387097,9.03765854 C19.8387097,10.3598115 19.4731219,11.4844832 18.7419355,12.4117073 C18.010749,13.3389315 16.9483941,13.9742422 15.5548387,14.3176585 L19.8903226,21.4778537 L15.0129032,21.4778537 Z M10.0580645,11.5875122 L12.7935484,11.5875122 C13.6709721,11.5875122 14.316127,11.3943434 14.7290323,11.008 C15.1419375,10.6216566 15.3483871,10.0507355 15.3483871,9.29521951 C15.3483871,8.57404517 15.1376365,8.00741669 14.716129,7.59531707 C14.2946215,7.18321745 13.6537677,6.97717073 12.7935484,6.97717073 L10.0580645,6.97717073 L10.0580645,11.5875122 Z" id="R" fill="#FFFFFF"></path>
            </g>
        </g>
    </g>
</svg>